Coordinates
version=1
nRows=9
nColumns=36
inDegrees=yes

Units are S.I. units (second, meters, Newtons, ...)
If the header above contains a line with 'inDegrees', this indicates whether rotational values are in degrees (yes) or radians (no).

endheader
time	pelvis_tilt	pelvis_list	pelvis_rotation	pelvis_tx	pelvis_ty	pelvis_tz	hip_flexion_r	hip_adduction_r	hip_rotation_r	knee_angle_r	knee_angle_r_beta	ankle_angle_r	subtalar_angle_r	mtp_angle_r	hip_flexion_l	hip_adduction_l	hip_rotation_l	knee_angle_l	knee_angle_l_beta	ankle_angle_l	subtalar_angle_l	mtp_angle_l	lumbar_extension	lumbar_bending	lumbar_rotation	arm_flex_r	arm_add_r	arm_rot_r	elbow_flex_r	pro_sup_r	arm_flex_l	arm_add_l	arm_rot_l	elbow_flex_l	pro_sup_l
      0.00000000	      8.47158518	     -1.25163878	     -2.50234069	      0.47892151	      1.03852529	      0.65154647	     11.56463975	     -1.86156567	     -1.85198930	     13.79128329	      0.24070330	     -2.66102986	    -10.05883731	     -6.38628912	    -15.31443607	     -0.16267488	     -2.67307377	      5.71860988	      0.09980857	      7.10536163	     -8.06499799	     -6.38628912	    -23.59036252	      0.13373484	      3.95594673	     -3.59103679	    -13.66426037	     -7.36923694	     31.56792235	     94.56230864	     20.66715046	    -13.26688871	     16.56444671	     28.69419300	     91.29230958
      0.01666670	      8.57832866	     -0.82658859	     -2.37570055	      0.47869576	      1.02979724	      0.65373662	     12.91375330	     -2.05067640	     -2.46632313	     13.06616207	      0.22804755	     -2.90121403	     -8.66950541	     -6.42779386	    -15.30108361	      0.34117137	     -0.99810876	      7.42895920	      0.12965980	      9.95148543	     -9.09216395	     -6.42779386	    -23.47259683	     -0.54449457	      4.53431055	     -3.34503585	    -13.95608828	     -5.59198578	     30.20356354	     98.75623332	     21.92005844	    -13.63229064	     20.51896117	     28.71355094	     94.29730517
      0.03333330	      7.90766219	     -0.42240100	     -2.26393503	      0.47860242	      1.02555602	      0.65681188	     14.00392801	     -2.27373942	     -2.07890048	     10.37574145	      0.18109085	     -3.36991497	     -7.96440061	     -6.42791998	    -14.93492303	      0.60682899	     -0.37921121	      8.19031448	      0.14294795	     11.56822247	     -8.97805308	     -6.42791998	    -22.69076295	     -0.95930085	      4.41926286	     -3.21221252	    -14.08835878	     -4.66931718	     29.29499567	    102.26639094	     22.56165808	    -13.95206679	     22.86229317	     28.14378001	     96.47861719
      0.05000000	      7.68540747	     -0.24695066	     -1.81916412	      0.47711478	      1.02472907	      0.65980834	     14.76183898	     -2.39108919	     -2.44082493	      8.69231935	      0.15170959	     -2.16879055	     -6.39926492	     -6.47290744	    -15.21769182	      0.54778389	     -0.17490773	      8.70609352	      0.15195000	     13.16665710	     -8.41760930	     -6.47290744	    -22.62635232	     -1.03952658	      4.53055690	     -3.80423210	    -14.19370281	     -4.87235826	     30.07664936	    102.62253394	     23.20882398	    -14.04312108	     24.44376890	     28.10456672	     95.98288335
      0.06666670	      7.29470709	     -0.01684252	     -1.54483926	      0.47407633	      1.02457763	      0.66221642	     15.69010791	     -2.49155595	     -2.88645666	      7.68432468	      0.13411677	     -1.12364717	     -4.90401936	     -6.67120108	    -15.27338780	      0.56243647	     -0.29100635	      9.57156365	      0.16705530	     14.44887753	     -8.20549457	     -6.67120108	    -22.44686516	     -1.33963940	      5.38210420	     -4.83635127	    -14.06179196	     -6.72034209	     31.17140863	    104.63938371	     24.51056876	    -13.82348323	     27.00962233	     27.52164399	     97.16425578
      0.08333330	      6.75398030	      0.08507125	     -1.25053151	      0.47048801	      1.02306812	      0.66390956	     16.66373996	     -2.46164040	     -3.28534374	      7.31190765	      0.12761686	     -0.84804592	     -4.39293129	     -6.68937500	    -15.08546185	      0.41773037	     -0.38135093	     10.65305629	      0.18593091	     15.48263163	     -7.93848425	     -6.68937500	    -22.16841905	     -1.36916983	      5.33281910	     -4.85608489	    -14.08457668	     -6.72203459	     31.34782884	    104.29786022	     24.75714800	    -13.85413975	     26.97356627	     27.78692186	     96.87971622
      0.10000000	      6.07882017	      0.00758620	     -1.06757160	      0.46916101	      1.02051478	      0.66612669	     17.59325024	     -2.22841471	     -3.86919936	      7.58580760	      0.13239732	     -0.93907590	     -3.77077393	     -6.70834392	    -14.74848586	      0.07673539	     -0.79389764	     11.81213525	      0.20616065	     16.63222661	     -6.93621656	     -6.70834392	    -21.62000075	     -1.17616306	      5.31682034	     -4.79752184	    -14.10525352	     -6.72124276	     31.35694250	    104.27669343	     24.88184506	    -13.77368361	     26.86806195	     27.83663510	     96.71600832
      0.11666670	      5.56036968	     -0.37745636	     -1.06355101	      0.47319882	      1.01841606	      0.67027120	     18.05432313	     -1.56598994	     -4.05576928	      8.40234582	      0.14664860	     -1.64905679	     -3.92639236	     -6.73628808	    -14.65934982	     -0.53184150	     -1.22063626	     12.93349326	      0.22573204	     17.58801491	     -5.89044924	     -6.73628808	    -21.09772570	     -0.69976796	      5.50546702	     -4.69001365	    -14.10045412	     -6.67250850	     31.17245638	    104.11166600	     24.75519517	    -13.55549797	     26.44666911	     27.69545340	     96.33561170
      0.13333330	      5.21411981	     -1.04002294	     -1.09341147	      0.48275533	      1.01651168	      0.67538605	     17.98350964	     -0.55542975	     -3.93946794	      9.52526926	      0.16624731	     -2.70872023	     -4.47933240	     -6.77127226	    -14.90376753	     -1.39793036	     -1.51524551	     13.96017091	      0.24365095	     18.25339213	     -4.81203525	     -6.77127226	    -20.43298023	      0.04004768	      5.78831901	     -4.65037987	    -14.19737383	     -6.44308055	     30.79472621	    103.73605090	     24.35896684	    -13.16103870	     25.74597531	     27.21874961	     95.71581397
